<?xml version="1.0" standalone="no"?><svg xmlns="http://www.w3.org/2000/svg" viewBox="0 0 1440 320"><path fill="#ff5500" fill-opacity="1" d="M0,160L0,192L96,192L96,192L192,192L192,128L288,128L288,0L384,0L384,192L480,192L480,32L576,32L576,64L672,64L672,160L768,160L768,96L864,96L864,32L960,32L960,32L1056,32L1056,256L1152,256L1152,320L1248,320L1248,96L1344,96L1344,192L1440,192L1440,320L1344,320L1344,320L1248,320L1248,320L1152,320L1152,320L1056,320L1056,320L960,320L960,320L864,320L864,320L768,320L768,320L672,320L672,320L576,320L576,320L480,320L480,320L384,320L384,320L288,320L288,320L192,320L192,320L96,320L96,320L0,320L0,320Z"></path></svg>